HIERARCHY
ROOT hip
{
  OFFSET 0 0 0
  CHANNELS 6 Xposition Yposition Zposition Zrotation Yrotation Xrotation
  JOINT abdomen
  {
    OFFSET 0 20.6881 -0.73152
    CHANNELS 3 Zrotation Xrotation Yrotation
    JOINT chest
    {
      OFFSET 0 11.7043 -0.48768
      CHANNELS 3 Zrotation Xrotation Yrotation
      JOINT neck
      {
        OFFSET 0 22.1894 -2.19456
        CHANNELS 3 Zrotation Xrotation Yrotation
        JOINT head
        {
          OFFSET -0.24384 7.07133 1.2192
          CHANNELS 3 Zrotation Xrotation Yrotation
          JOINT leftEye
          {
            OFFSET 4.14528 8.04674 8.04672
            CHANNELS 3 Zrotation Xrotation Yrotation
            End Site
            {
              OFFSET 1 0 0
            }
          }
          JOINT rightEye
          {
            OFFSET -3.6576 8.04674 8.04672
            CHANNELS 3 Zrotation Xrotation Yrotation
            End Site
            {
              OFFSET 1 0 0
            }
          }
        }
      }
      JOINT rCollar
      {
        OFFSET -2.68224 19.2634 -4.8768
        CHANNELS 3 Zrotation Xrotation Yrotation
        JOINT rShldr
        {
          OFFSET -8.77824 -1.95073 1.46304
          CHANNELS 3 Zrotation Xrotation Yrotation
          JOINT rForeArm
          {
            OFFSET -28.1742 -1.7115 0.48768
            CHANNELS 3 Zrotation Xrotation Yrotation
            JOINT rHand
            {
              OFFSET -22.5879 0.773209 7.07136
              CHANNELS 3 Zrotation Xrotation Yrotation
              JOINT rThumb1
              {
                OFFSET -1.2192 -0.487915 3.41376
                CHANNELS 3 Zrotation Xrotation Yrotation
                JOINT rThumb2
                {
                  OFFSET -3.37035 -0.52449 3.41376
                  CHANNELS 3 Zrotation Xrotation Yrotation
                  End Site
                  {
                    OFFSET -1.78271 -1.18214 1.43049
                  }
                }
              }
              JOINT rIndex1
              {
                OFFSET -7.75947 0.938293 5.60832
                CHANNELS 3 Zrotation Xrotation Yrotation
                JOINT rIndex2
                {
                  OFFSET -2.54057 -0.884171 1.56538
                  CHANNELS 3 Zrotation Xrotation Yrotation
                  End Site
                  {
                    OFFSET -1.62519 -0.234802 1.16502
                  }
                }
              }
              JOINT rMid1
              {
                OFFSET -8.24714 1.18213 3.41376
                CHANNELS 3 Zrotation Xrotation Yrotation
                JOINT rMid2
                {
                  OFFSET -3.10165 -0.590103 1.0647
                  CHANNELS 3 Zrotation Xrotation Yrotation
                  End Site
                  {
                    OFFSET -2.48547 -0.328903 0.83742
                  }
                }
              }
              JOINT rRing1
              {
                OFFSET -8.82822 0.546677 1.51678
                CHANNELS 3 Zrotation Xrotation Yrotation
                JOINT rRing2
                {
                  OFFSET -2.60934 -0.819778 -0.0198488
                  CHANNELS 3 Zrotation Xrotation Yrotation
                  End Site
                  {
                    OFFSET -2.33842 -0.294052 0.168128
                  }
                }
              }
              JOINT rPinky1
              {
                OFFSET -8.27202 -0.0477905 -0.4584
                CHANNELS 3 Zrotation Xrotation Yrotation
                JOINT rPinky2
                {
                  OFFSET -1.82734 -0.647385 -0.700984
                  CHANNELS 3 Zrotation Xrotation Yrotation
                  End Site
                  {
                    OFFSET -1.69225 -0.51767 -0.607171
                  }
                }
              }
            }
          }
        }
      }
      JOINT lCollar
      {
        OFFSET 2.68224 19.2634 -4.8768
        CHANNELS 3 Zrotation Xrotation Yrotation
        JOINT lShldr
        {
          OFFSET 8.77824 -1.95073 1.46304
          CHANNELS 3 Zrotation Xrotation Yrotation
          JOINT lForeArm
          {
            OFFSET 28.1742 -1.7115 0.48768
            CHANNELS 3 Zrotation Xrotation Yrotation
            JOINT lHand
            {
              OFFSET 22.5879 0.773209 7.07136
              CHANNELS 3 Zrotation Xrotation Yrotation
              JOINT lThumb1
              {
                OFFSET 1.2192 -0.487915 3.41376
                CHANNELS 3 Zrotation Xrotation Yrotation
                JOINT lThumb2
                {
                  OFFSET 3.37035 -0.52449 3.41376
                  CHANNELS 3 Zrotation Xrotation Yrotation
                  End Site
                  {
                    OFFSET 1.78271 -1.18214 1.43049
                  }
                }
              }
              JOINT lIndex1
              {
                OFFSET 7.75947 0.938293 5.60832
                CHANNELS 3 Zrotation Xrotation Yrotation
                JOINT lIndex2
                {
                  OFFSET 2.54057 -0.884171 1.56538
                  CHANNELS 3 Zrotation Xrotation Yrotation
                  End Site
                  {
                    OFFSET 1.62519 -0.234802 1.16502
                  }
                }
              }
              JOINT lMid1
              {
                OFFSET 8.24714 1.18213 3.41376
                CHANNELS 3 Zrotation Xrotation Yrotation
                JOINT lMid2
                {
                  OFFSET 3.10165 -0.590103 1.0647
                  CHANNELS 3 Zrotation Xrotation Yrotation
                  End Site
                  {
                    OFFSET 2.48547 -0.328903 0.83742
                  }
                }
              }
              JOINT lRing1
              {
                OFFSET 8.82822 0.546677 1.51678
                CHANNELS 3 Zrotation Xrotation Yrotation
                JOINT lRing2
                {
                  OFFSET 2.60934 -0.819778 -0.0198488
                  CHANNELS 3 Zrotation Xrotation Yrotation
                  End Site
                  {
                    OFFSET 2.33842 -0.294052 0.168128
                  }
                }
              }
              JOINT lPinky1
              {
                OFFSET 8.27202 -0.0477905 -0.4584
                CHANNELS 3 Zrotation Xrotation Yrotation
                JOINT lPinky2
                {
                  OFFSET 1.82734 -0.647385 -0.700984
                  CHANNELS 3 Zrotation Xrotation Yrotation
                  End Site
                  {
                    OFFSET 1.69225 -0.51767 -0.607171
                  }
                }
              }
            }
          }
        }
      }
    }
  }
  JOINT rButtock
  {
    OFFSET -8.77824 4.35084 1.2192
    CHANNELS 3 Zrotation Xrotation Yrotation
    JOINT rThigh
    {
      OFFSET 0 -1.70687 -2.19456
      CHANNELS 3 Zrotation Xrotation Yrotation
      JOINT rShin
      {
        OFFSET 0 -36.8199 0.73152
        CHANNELS 3 Zrotation Xrotation Yrotation
        JOINT rFoot
        {
          OFFSET 0.73152 -45.1104 -5.12064
          CHANNELS 3 Zrotation Xrotation Yrotation
          End Site
          {
            OFFSET -1.1221 -3.69964 12.103
          }
        }
      }
    }
  }
  JOINT lButtock
  {
    OFFSET 8.77824 4.35084 1.2192
    CHANNELS 3 Zrotation Xrotation Yrotation
    JOINT lThigh
    {
      OFFSET 0 -1.70687 -2.19456
      CHANNELS 3 Zrotation Xrotation Yrotation
      JOINT lShin
      {
        OFFSET 0 -36.8199 0.73152
        CHANNELS 3 Zrotation Xrotation Yrotation
        JOINT lFoot
        {
          OFFSET -0.73152 -45.1104 -5.12064
          CHANNELS 3 Zrotation Xrotation Yrotation
          End Site
          {
            OFFSET 1.1221 -3.69964 12.103
          }
        }
      }
    }
  }
}
MOTION
Frames:	4
Frame Time:	0.03333
23.980037892546747 45.46600798383613 47.711993709485114 100.38847351074219 -45.29346466064453 -67.37361145019531 -14.56258773803711 9.583430290222168 13.93885612487793 -6.121329307556152 -5.870838165283203 3.5167033672332764 2.714434862136841 8.630475044250488 8.969107627868652 -16.70001983642578 -11.647292137145996 15.394103050231934 -0.33631631731987 0.055973950773477554 -0.03662697598338127 0.3300747573375702 0.35775312781333923 0.19878306984901428 0.12731076776981354 -0.05467718467116356 0.4717458188533783 7.222285270690918 41.09001541137695 42.89374923706055 -29.16366958618164 -31.53234100341797 69.2776870727539 0.42401620745658875 7.414092063903809 1.1938269138336182 -0.4484313428401947 0.2822902798652649 -0.32180365920066833 -0.3132998049259186 -0.04489732161164284 -0.06859838217496872 0.39022326469421387 0.21151715517044067 -0.09540903568267822 7.975046157836914 5.780508041381836 0.319265216588974 -0.5782487392425537 0.393854022026062 0.16343377530574799 2.4830899238586426 0.7807102799415588 0.1277044713497162 0.06378214061260223 0.08022380620241165 0.08961576223373413 10.481465339660645 0.6401055455207825 0.0604596845805645 -0.01641293615102768 -0.04859058931469917 0.3235412538051605 2.500753402709961 -0.7720492482185364 -0.2922883927822113 -0.2732487916946411 0.1575758308172226 -0.3478015065193176 -63.969268798828125 -12.956226348876953 7.860926628112793 27.423017501831055 -25.892820358276367 -60.460304260253906 0.7395826578140259 -35.60138702392578 5.134157180786133 -0.15130673348903656 0.09021689742803574 0.02011445164680481 0.11153998225927353 -0.7110454440116882 0.08648496866226196 0.37960749864578247 0.10051923990249634 -0.039983730763196945 -8.080010414123535 5.739835262298584 -0.75376957654953 -0.060987796634435654 0.14794476330280304 0.35864534974098206 -2.5061662197113037 1.1287517547607422 -0.31611090898513794 0.30162811279296875 -0.34479114413261414 0.2664353549480438 -10.392522811889648 0.8428871631622314 0.2183193564414978 0.04092027619481087 0.20550645887851715 -0.160755455493927 -2.1537861824035645 -0.9199421405792236 0.30348625779151917 -0.2188951075077057 -0.10536327213048935 0.15869790315628052 -59.58477783203125 -40.595890045166016 -24.39018440246582 -0.18627363443374634 30.37589454650879 2.306136131286621 0.7663425207138062 -2.2848494052886963 -25.999942779541016 -0.362115740776062 -0.7810869216918945 0.06267640739679337 137.1759033203125 -4.559815406799316 113.20489501953125 177.92083740234375 54.665836334228516 179.03900146484375 -4.28349494934082 -2.1164371967315674 -4.168310642242432
23.881600886063406 44.593287392826916 47.81219594634293 103.91141510009766 -47.31641387939453 -69.66048431396484 -13.317449569702148 9.109668731689453 14.175827026367188 -6.522597789764404 -5.419756889343262 3.6825950145721436 3.008514642715454 8.772934913635254 9.230117797851562 -16.18805503845215 -12.00042724609375 16.16243553161621 -0.12269112467765808 -0.23662756383419037 0.0028435755521059036 0.37943926453590393 0.3830016553401947 0.24685382843017578 0.3827863931655884 -0.03809046745300293 0.47952648997306824 7.190350532531738 42.700889587402344 43.49772262573242 -28.995864868164062 -31.832788467407227 69.71395111083984 0.41951748728752136 7.3843278884887695 1.3468976020812988 -0.4105217456817627 0.20681901276111603 -0.35735151171684265 -0.6189731955528259 -0.17980101704597473 -0.2441813051700592 0.3438463807106018 0.35440874099731445 -0.26204776763916016 8.015828132629395 5.569746017456055 0.20030389726161957 -0.8005325198173523 0.3162885010242462 0.22860676050186157 2.336575746536255 0.7351852059364319 -0.08303214609622955 0.1752442717552185 0.14183366298675537 0.22145643830299377 10.293012619018555 0.5091326832771301 -0.009081201627850533 -0.07934554666280746 -0.03674345463514328 0.33978933095932007 2.528378486633301 -0.7512226104736328 -0.3629882037639618 -0.05042821913957596 0.22435323894023895 -0.34303608536720276 -64.04405975341797 -11.90610122680664 8.640434265136719 27.432825088500977 -26.37558937072754 -61.67515182495117 0.7220527529716492 -34.34852600097656 4.970311164855957 -0.3028748631477356 0.0025983131490647793 0.014653850346803665 0.0081759849563241 -0.6698213219642639 0.18816643953323364 0.18974725902080536 0.22216157615184784 0.0970381498336792 -8.247408866882324 5.7132344245910645 -0.7542161345481873 -0.07596016675233841 0.24548621475696564 0.32464399933815 -2.4680044651031494 1.067822813987732 -0.21657739579677582 0.21485169231891632 -0.5863387584686279 0.3647964894771576 -10.476277351379395 0.9247280359268188 0.1325194239616394 -0.08762059360742569 0.243642657995224 -0.12403034418821335 -2.050926685333252 -0.8552082180976868 0.4506204128265381 0.039113789796829224 -0.21111083030700684 0.1675768792629242 -60.376861572265625 -44.25754165649414 -28.477191925048828 -0.2798073887825012 34.98345947265625 2.323157787322998 0.3104727268218994 -3.1644206047058105 -23.21085548400879 -0.2883954346179962 -0.6493179798126221 0.10545413196086884 135.70611572265625 -2.7355263233184814 117.37757110595703 178.014404296875 49.400550842285156 179.27871704101562 -4.60078239440918 -1.2756526470184326 -4.388628005981445
23.636466784133823 43.89647832389139 47.92355561737509 107.38789367675781 -49.96498489379883 -73.62872314453125 -12.1867094039917 9.916542053222656 14.160103797912598 -6.723539352416992 -5.348848819732666 3.720041036605835 3.1092772483825684 9.133533477783203 9.371878623962402 -15.531213760375977 -12.371378898620605 16.65327262878418 0.04103719815611839 -0.5414356589317322 0.05870417132973671 0.3662717044353485 0.3121388554573059 0.26722005009651184 0.4461611807346344 -0.0641934797167778 0.47679436206817627 7.141643047332764 44.23638153076172 43.90041732788086 -28.613773345947266 -32.27440643310547 70.43376159667969 0.3918660581111908 7.568941116333008 1.451382040977478 -0.30496668815612793 0.05498134344816208 -0.3130892515182495 -0.821087121963501 -0.29168519377708435 -0.26346665620803833 0.32956281304359436 0.42556560039520264 -0.3363795280456543 7.987763404846191 5.313230037689209 0.18660907447338104 -0.8813502192497253 0.1953379213809967 0.2914811670780182 2.294398307800293 0.6025446057319641 -0.31246280670166016 0.21136540174484253 0.27763602137565613 0.33708706498146057 10.143889427185059 0.3672144412994385 -0.08777008950710297 -0.13704335689544678 -0.03637843206524849 0.31922203302383423 2.5124847888946533 -0.8216837644577026 -0.32864144444465637 0.1303720921278 0.2778363525867462 -0.32272276282310486 -63.93575668334961 -10.526080131530762 9.659435272216797 27.41893196105957 -27.10208511352539 -63.16786575317383 0.8043399453163147 -33.22941207885742 4.836028099060059 -0.34211742877960205 -0.013504334725439548 0.030607355758547783 -0.1395672857761383 -0.49496421217918396 0.25647643208503723 -0.06441796571016312 0.3718539774417877 0.2337818294763565 -8.282424926757812 5.688094615936279 -0.6448958516120911 -0.1001148596405983 0.3210979402065277 0.31736254692077637 -2.4982264041900635 1.0084322690963745 -0.15417270362377167 0.1600532829761505 -0.8157802820205688 0.3541688919067383 -10.398224830627441 0.9549011588096619 -0.0035740446764975786 -0.16175507009029388 0.20752368867397308 -0.08233123272657394 -2.0323100090026855 -0.8145265579223633 0.48546895384788513 0.2244178056716919 -0.27128884196281433 0.20248167216777802 -59.973087310791016 -46.654659271240234 -31.440479278564453 -0.4106157124042511 38.66062927246094 2.3039534091949463 -0.05509122088551521 -4.195742607116699 -19.991506576538086 -0.24159279465675354 -0.49143287539482117 0.17501336336135864 133.2598876953125 -3.4569075107574463 119.62741088867188 177.8871612548828 46.47626876831055 179.5692901611328 -4.864534854888916 -1.1880229711532593 -4.4131975173950195
23.300591057759686 43.41087919466016 48.04935825701576 111.10562133789062 -52.76521301269531 -79.89945220947266 -11.0305814743042 12.101349830627441 13.970229148864746 -6.742988109588623 -5.720440864562988 3.632051944732666 3.1362838745117188 9.651955604553223 9.548803329467773 -14.840710639953613 -12.706291198730469 17.038103103637695 0.12717466056346893 -0.696808397769928 0.09770379960536957 0.3115168809890747 0.20389656722545624 0.25362342596054077 0.3332412838935852 -0.12242542207241058 0.44123074412345886 6.98140811920166 45.89873504638672 44.26475143432617 -28.167673110961914 -32.756431579589844 71.41168975830078 0.38694268465042114 7.94679594039917 1.5599473714828491 -0.18897002935409546 -0.0972384437918663 -0.22842314839363098 -0.8164002299308777 -0.3585476577281952 -0.1152452677488327 0.2827773690223694 0.3572154641151428 -0.3312867283821106 7.862827301025391 5.074069499969482 0.24626165628433228 -0.8357388973236084 0.07243618369102478 0.2753209173679352 2.4050779342651367 0.512474000453949 -0.44350796937942505 0.18422828614711761 0.4663344919681549 0.4078844487667084 10.086494445800781 0.25261256098747253 -0.1427389234304428 -0.1536390334367752 -0.10553684085607529 0.28722575306892395 2.4169039726257324 -0.9313427805900574 -0.26308050751686096 0.21741965413093567 0.28150972723960876 -0.3382234573364258 -63.53602981567383 -9.119484901428223 10.523146629333496 27.4085636138916 -28.1229190826416 -64.94010162353516 0.9716781377792358 -32.48761749267578 4.795347690582275 -0.25643375515937805 -0.023083796724677086 0.09546634554862976 -0.2833045721054077 -0.26908090710639954 0.3134680688381195 -0.33529025316238403 0.47228172421455383 0.3546951115131378 -8.241570472717285 5.632690906524658 -0.49966415762901306 -0.15599608421325684 0.33108437061309814 0.2932893931865692 -2.5795936584472656 0.9830511212348938 -0.13418321311473846 0.1116955429315567 -0.9314300417900085 0.3055548667907715 -10.216835021972656 0.9191926121711731 -0.09050722420215607 -0.20872355997562408 0.12239006161689758 -0.02773832343518734 -2.1058197021484375 -0.8035084009170532 0.3908626437187195 0.22654199600219727 -0.2612999677658081 0.24012300372123718 -58.173484802246094 -47.94631576538086 -32.67042541503906 -0.5442712903022766 41.40324020385742 2.242058753967285 -0.24753089249134064 -5.269013404846191 -16.590864181518555 -0.33533695340156555 -0.33833494782447815 0.21844026446342468 129.6620330810547 -6.822733402252197 119.70706176757812 177.67762756347656 45.93058776855469 179.80833435058594 -5.019007682800293 -1.9256726503372192 -4.614584922790527
